<svg xmlns="http://www.w3.org/2000/svg" xmlns:xlink="http://www.w3.org/1999/xlink" fill="none" version="1.1" width="40" height="40" viewBox="0 0 40 40"><g><g><rect x="0" y="0" width="40" height="40" rx="8" fill="#017EFA" fill-opacity="0.10000000149011612"/></g><g><path d="M11.719164,15.98515L27.8234,12.0268722C28.18,11.9402658,28.5546,12.0667662,28.7862,12.352066C29.0179,12.637367,29.0654,13.03072,28.9085,13.36325L21.732599999999998,28.4646C21.563299999999998,28.8128,21.2006,29.0236,20.81504,28.9979C20.4295,28.9721,20.09789,28.7149,19.976210000000002,28.3472L18.1476,22.637700000000002C18.04104,22.3146,18.11554,21.9591,18.34275,21.70635L21.477,18.22745C21.5661,18.13629,21.5733,17.99276,21.4938,17.89308C21.4142,17.7934,21.273,17.76895,21.1647,17.83612L17.00984,20.26822C16.72073,20.43722,16.364359999999998,20.441679999999998,16.07114,20.279960000000003L11.490832,17.74612C11.149037,17.55625,10.957603,17.17632,11.0079769,16.78782C11.0583508,16.39932,11.340311,16.08109,11.719164,15.98515Z" fill="#017EFA" fill-opacity="1"/></g></g></svg>